<?xml version="1.0" encoding="utf-8"?>
<!-- Generator: Adobe Illustrator 22.1.0, SVG Export Plug-In . SVG Version: 6.00 Build 0)  -->
<svg version="1.1" id="Layer_1" xmlns="http://www.w3.org/2000/svg" xmlns:xlink="http://www.w3.org/1999/xlink" x="0px" y="0px"
	 height="120px" viewBox="0 50 800 205" style="enable-background:new 0 0 800 205;" xml:space="preserve">
<style type="text/css">
	.st0{fill:#F7AD0B;}
	.st1{fill-rule:evenodd;clip-rule:evenodd;fill:#1A1A1A;}
	.st2{fill:#1A1A1A;}
	.st3{fill-rule:evenodd;clip-rule:evenodd;fill:#FFFFFF;}
	.st4{fill:#FFFFFF;}
	.st5{fill-rule:evenodd;clip-rule:evenodd;}
</style>
<g>
	<g>
		<path class="st0" d="M264.5,121h-7.5v-12.6c0-4.3,0.4-6.1,0.8-6.8c0.1-0.3,0.5-1,2.3-1c0.4,0,0.9,0,1.3,0.1
			c0.4,0.1,0.8,0.2,1.2,0.4l2.4,1.1v-9.6l-1.1-0.4c-0.6-0.2-1.3-0.4-2.1-0.5c-0.7-0.1-1.5-0.2-2.4-0.2c-4.2,0-7.4,1.4-9.3,4.2
			c-1.8,2.6-2.7,6.7-2.7,12.5V121h-4.4v9h4.4v31.4h9.7v-31.4h7.5V121z"/>
		<path class="st0" d="M288.4,119.9c-6,0-11.1,2.1-15.2,6.1c-4.1,4.1-6.2,9.1-6.2,15.1c0,6,2.1,11.1,6.2,15.3
			c4.1,4.2,9.2,6.3,15.1,6.3c6,0,11.1-2.1,15.3-6.3s6.3-9.3,6.3-15.3s-2.1-11-6.2-15.1C299.6,122,294.5,119.9,288.4,119.9z
			 M288.5,153.3c-3.3,0-6-1.1-8.3-3.5c-2.3-2.3-3.4-5.2-3.4-8.7c0-3.5,1.1-6.3,3.4-8.5c2.3-2.2,5-3.3,8.4-3.3c3.4,0,6.1,1.1,8.4,3.3
			c2.3,2.2,3.4,5,3.4,8.5c0,3.5-1.1,6.4-3.4,8.7C294.6,152.2,291.9,153.3,288.5,153.3z"/>
		<polygon class="st0" points="328.3,106 318.7,106 318.7,121 314.2,121 314.2,130.1 318.7,130.1 318.7,161.5 328.3,161.5 
			328.3,130.1 334.2,130.1 334.2,121 328.3,121 		"/>
		<path class="st0" d="M359,119.9c-6,0-11.1,2.1-15.2,6.1c-4.1,4.1-6.2,9.1-6.2,15.1c0,6,2.1,11.1,6.2,15.3
			c4.1,4.2,9.2,6.3,15.1,6.3c6,0,11.1-2.1,15.3-6.3s6.3-9.3,6.3-15.3s-2.1-11-6.2-15.1C370.2,122,365,119.9,359,119.9z M359,153.3
			c-3.3,0-6-1.1-8.3-3.5c-2.3-2.3-3.4-5.2-3.4-8.7c0-3.5,1.1-6.3,3.4-8.5c2.3-2.2,5-3.3,8.4-3.3c3.4,0,6.1,1.1,8.4,3.3
			c2.3,2.2,3.4,5,3.4,8.5c0,3.5-1.1,6.4-3.4,8.7C365.2,152.2,362.4,153.3,359,153.3z"/>
		<path class="st0" d="M417.3,123.8c-0.9-0.8-1.9-1.4-3-2c-2.5-1.3-5.4-1.9-8.6-1.9c-5.7,0-10.5,2-14.1,6c-3.6,3.9-5.5,9-5.5,15.1
			c0,6.2,1.8,11.5,5.4,15.5c3.7,4.1,8.4,6.2,14,6.2c3.4,0,6.4-0.7,8.9-2.1c1-0.6,2-1.3,2.9-2v3.8c0,4-0.8,6.9-2.4,8.7
			c-1.5,1.7-4.3,2.5-8.1,2.5c-2.8,0-5-0.5-6.5-1.3c-1.4-0.8-2.2-2-2.5-3.6l-0.3-1.3h-9.9l0.3,1.9c0.6,4.4,2.6,7.8,6,10.2
			c3.2,2.3,7.6,3.5,12.9,3.5c6.8,0,11.9-1.8,15.3-5.3c3.3-3.5,5-8.8,5-15.9V121h-9.7V123.8z M414.4,132.3c2,2.1,2.9,4.9,2.9,8.5
			c0,3.7-1,6.7-3.2,9c-2.1,2.3-4.6,3.4-7.8,3.4c-3.1,0-5.6-1.1-7.5-3.3c-2-2.3-3-5.2-3-8.9c0-3.6,1-6.4,3-8.6c2-2.1,4.6-3.2,7.8-3.2
			C409.9,129.3,412.4,130.3,414.4,132.3z"/>
		<path class="st0" d="M460.1,121.4l-1.1-0.6c-0.5-0.3-1.2-0.5-2-0.7c-0.7-0.2-1.5-0.2-2.3-0.2c-3.2,0-5.8,0.7-7.8,2.1
			c-0.5,0.3-0.9,0.7-1.3,1.1V121h-9.7v40.5h9.7v-17.7c0-5,0.7-8.8,2.2-11.2c1.3-2.2,3.1-3.2,5.7-3.2c0.5,0,0.9,0.1,1.3,0.2
			c0.4,0.1,0.7,0.2,1.1,0.4l2,1.2L460.1,121.4z"/>
		<path class="st0" d="M492.1,123.8c-0.9-0.8-1.9-1.4-3-2c-2.5-1.3-5.4-1.9-8.6-1.9c-5.7,0-10.5,2-14.1,6c-3.6,3.9-5.5,9-5.5,15.1
			c0,6.2,1.8,11.5,5.4,15.5c3.7,4.1,8.4,6.2,14,6.2c3.4,0,6.4-0.7,8.9-2.1c1-0.6,2-1.3,2.9-2v2.9h9.7V121h-9.7V123.8z M489.2,132.3
			c2,2.1,2.9,4.9,2.9,8.5c0,3.7-1,6.7-3.2,9c-2.1,2.3-4.6,3.4-7.8,3.4c-3.1,0-5.6-1.1-7.5-3.3c-2-2.3-3-5.2-3-8.9c0-3.6,1-6.4,3-8.6
			c2-2.1,4.6-3.2,7.8-3.2C484.7,129.3,487.3,130.3,489.2,132.3z"/>
		<path class="st0" d="M529,91.8c-0.7-0.1-1.5-0.2-2.4-0.2c-4.2,0-7.4,1.4-9.3,4.2c-1.8,2.6-2.7,6.7-2.7,12.5V121h-4.4v9h4.4v31.4
			h9.7v-31.4h7.5v-9h-7.5v-12.6c0-4.3,0.4-6.1,0.8-6.8c0.1-0.3,0.5-1,2.3-1c0.4,0,0.9,0,1.3,0.1c0.4,0.1,0.8,0.2,1.2,0.4l2.4,1.1
			v-9.6l-1.1-0.4C530.5,92,529.8,91.9,529,91.8z"/>
		<rect x="539" y="121" class="st0" width="9.7" height="40.5"/>
		<path class="st0" d="M539.6,103.8c-1.2,1.2-1.8,2.6-1.8,4.3c0,1.6,0.6,3.1,1.8,4.2c1.2,1.2,2.6,1.8,4.2,1.8c1.6,0,3.1-0.6,4.3-1.8
			c1.2-1.2,1.8-2.6,1.8-4.3c0-1.6-0.6-3.1-1.8-4.3C545.7,101.4,541.9,101.4,539.6,103.8z"/>
		<rect x="557.6" y="134.1" class="st0" width="21.4" height="9.4"/>
	</g>
	<g>
		<path class="st0" d="M90.9,76.5c0,0-19.1,6.7-28.8,30.6l56-10.9L90.9,76.5z M90.9,76.5"/>
		<g>
			<path class="st0" d="M60.9,111.8c0,0-7.9,21.5,0.7,42.8l31.8-49.1L60.9,111.8z M62.1,111"/>
		</g>
		<g>
			<path class="st0" d="M63.8,157.1c0,0,6.4,17.9,30.3,28.5l-10.5-58.3L63.8,157.1z M63.8,157.1"/>
		</g>
		<g>
			<path class="st0" d="M97.5,186.4c0,0,16.6,7.9,40.7-2.4l-47-33.3L97.5,186.4z M97.5,186.4"/>
		</g>
		<g>
			<path class="st0" d="M141.5,182.5c0,0,17.1-6.7,27.2-31.7l-55.8,11L141.5,182.5z M141.5,182.5"/>
		</g>
		<g>
			<path class="st0" d="M167.2,104.8l-31.8,49.1l34.1-6.6C169.5,147.3,177.1,129.9,167.2,104.8L167.2,104.8z M167.2,104.8"/>
		</g>
		<g>
			<path class="st0" d="M165.1,100.8c0,0-6.1-17.1-28.9-27.2l10.1,55.6L165.1,100.8z M165.1,100.8"/>
		</g>
	</g>
	<g>
		<path class="st0" d="M132.9,72.8c0,0-15.9-7.5-38.8,2.3l44.9,31.8L132.9,72.8z M132.9,72.8"/>
	</g>
	<g>
		<g>
			<path class="st1" d="M132.1,225.2c0,0,49.7-21.6,78.9-52.2c0.9-0.9,2.4-0.7,2.9,0.5l5.2,12.4c0.3,0.8,0.1,1.7-0.7,2.2
				C212.6,191.9,185.9,208.2,132.1,225.2"/>
			<path class="st1" d="M125.4,232.4c0,0,60.3-15.2,89.8-33.6c0.9-0.6,2.2-0.2,2.6,0.8l5.3,13.4c0.4,0.9-0.1,2-1.1,2.3
				C215,217.8,183.3,226.2,125.4,232.4"/>
			<path class="st1" d="M116.3,238.9c0,0,75.2-2.3,104.4-3.3c1.1,0,1.9-1.1,1.7-2.1l-1.8-8.5c-0.2-1-1.3-1.7-2.3-1.3
				C212,225.9,186.2,232.8,116.3,238.9"/>
			<path class="st2" d="M214.9,154.5l-23.6-78.3c-0.8-2.8-4.5-3.4-6.2-1.1c-3.1,4-6.1,7.6-9.2,10.8c8.7,12.4,13.8,27.6,13.8,43.9
				c0,42.5-34.4,76.9-76.9,76.9c-7.9,0-15.5-1.2-22.7-3.4l-5.3,26.6c-0.5,2.6,1.9,4.9,4.5,4.1c82.9-24.2,118.7-67.9,125.1-76.4
				C215,156.8,215.2,155.6,214.9,154.5z"/>
		</g>
		<path class="st2" d="M114.6,58.6c-37.6,0-68.1,31.9-68.1,71.2c0,39.3,30.5,71.2,68.1,71.2c37.6,0,68.1-31.9,68.1-71.2
			C182.8,90.5,152.2,58.6,114.6,58.6L114.6,58.6z M114.6,195.5c-34.7,0-62.9-29.5-62.9-65.7c0-36.2,28.2-65.7,62.9-65.7
			c34.7,0,62.9,29.5,62.9,65.7C177.5,166,149.3,195.5,114.6,195.5L114.6,195.5z M114.6,195.5"/>
		<path class="st2" d="M134.1,131.6l-26,15.3c-0.5,0.3-1,0.4-1.5,0.4c-0.5,0-1-0.1-1.5-0.4c-1-0.6-1.5-1.5-1.5-2.7v-30.6
			c0-1.2,0.5-2.1,1.5-2.7c1.1-0.6,2.1-0.6,3.1,0l26,15.3c1,0.6,1.5,1.4,1.5,2.6C135.7,130.2,135.1,131.1,134.1,131.6L134.1,131.6z"
			/>
	</g>
	<g>
		<path class="st2" d="M268.2,228.4c-1.9,0.6-3.8,0.9-5.8,0.9c-4.2,0-7.7-1.2-10.3-3.6c-2.6-2.4-3.9-5.5-3.9-9.3
			c0-4.1,1.3-7.4,3.9-9.9c2.6-2.5,6.1-3.7,10.3-3.7c1.7,0,3.5,0.3,5.3,0.8c1.8,0.6,3.4,1.3,4.9,2.4l0.7,0.5v-7.8l-0.2-0.1
			c-1.6-0.9-3.2-1.5-5-1.9c-1.8-0.4-3.7-0.6-5.9-0.6c-6.2,0-11.4,1.9-15.3,5.6c-3.9,3.8-5.9,8.7-5.9,14.6c0,5.9,1.9,10.7,5.8,14.5
			c3.8,3.7,8.8,5.6,14.8,5.6c2.3,0,4.4-0.2,6.4-0.7c2-0.5,3.9-1.2,5.6-2.1l0.2-0.1v-7.8l-0.7,0.5C271.7,227,270.1,227.8,268.2,228.4
			z"/>
		<path class="st2" d="M310,201.7c-1.3-1.7-2.9-3-4.8-4c-2.3-1.2-5-1.8-8.1-1.8c-5.3,0-9.8,1.9-13.2,5.6c-3.4,3.7-5.1,8.5-5.1,14.3
			c0,5.9,1.7,10.9,5.1,14.7c3.4,3.8,7.8,5.8,13.1,5.8c3.2,0,6-0.6,8.3-1.9c1.9-1,3.5-2.5,4.7-4.3v5h7.2v-37.9H310V201.7z
			 M306.5,225.4c-2.3,2.5-5.2,3.8-8.7,3.8c-3.4,0-6.3-1.2-8.5-3.7c-2.2-2.5-3.3-5.7-3.3-9.7c0-3.9,1.1-7.1,3.4-9.5
			c2.2-2.4,5.2-3.6,8.7-3.6c3.6,0,6.5,1.2,8.6,3.4c2.2,2.3,3.2,5.4,3.2,9.4C310,219.6,308.8,222.9,306.5,225.4z"/>
		<path class="st2" d="M366.7,195.9c-2.8,0-5.2,0.6-7.1,1.7c-1.7,1-3.1,2.4-4.1,4.2c-0.8-1.8-2-3.2-3.5-4.2c-1.8-1.2-4-1.7-6.5-1.7
			c-2.7,0-5,0.5-6.8,1.6c-1.4,0.8-2.5,1.9-3.5,3.3v-3.7H328V235h7.2v-18.3c0-4.9,0.7-8.6,2-10.9c1.3-2.3,3.3-3.4,6.2-3.4
			c2.3,0,3.9,0.7,4.9,2.2c1,1.5,1.5,4.1,1.5,7.8V235h7.2v-18.8c0-5.1,0.6-8.7,1.8-10.8c1.2-2.1,3.1-3.1,5.9-3.1c2.3,0,4,0.8,5,2.4
			c1.1,1.6,1.7,4.2,1.7,7.6V235h7.2v-24.8c0-4.5-1-8-3.1-10.5C373.3,197.2,370.4,195.9,366.7,195.9z"/>
		<path class="st2" d="M404.5,195.9c-5.2,0-9.7,1.9-13.3,5.7c-3.6,3.8-5.4,8.5-5.4,14.2c0,6.1,1.7,11.1,5.1,14.8
			c3.4,3.7,8,5.6,13.7,5.6c3.9,0,7.4-0.8,10.2-2.5c2.9-1.7,5.2-4.2,7-7.5l0.2-0.4l-6.1-3.2l-0.2,0.4c-1.1,2.1-2.5,3.6-4.4,4.7
			c-1.8,1-4.1,1.6-6.7,1.6c-3.4,0-6.2-1.1-8.3-3.2c-2-2-3.1-4.9-3.4-8.6h29.8v-2.6c0-5.6-1.7-10.2-5.1-13.6
			C414.3,197.7,409.8,195.9,404.5,195.9z M393.1,212.1c0.4-2.7,1.7-5,3.6-6.6c2.1-1.8,4.7-2.6,7.7-2.6c3.1,0,5.7,0.9,7.7,2.6
			c1.9,1.6,3,3.9,3.4,6.7H393.1z"/>
		<path class="st2" d="M451.5,196.8l-0.3-0.2c-0.4-0.2-1-0.4-1.6-0.5c-0.7-0.1-1.3-0.2-2-0.2c-2.9,0-5.3,0.6-7.1,1.9
			c-1.3,0.9-2.4,2.3-3.3,4v-4.8H430V235h7.2v-16.5c0-5.2,0.8-9.2,2.3-11.8c1.5-2.6,3.7-3.8,6.7-3.8c0.6,0,1.1,0.1,1.6,0.2
			c0.5,0.1,1,0.3,1.4,0.6l0.5,0.3l1.6-6.8L451.5,196.8z"/>
		<path class="st2" d="M482.5,201.7c-1.3-1.7-2.9-3-4.8-4c-2.3-1.2-5-1.8-8.1-1.8c-5.3,0-9.8,1.9-13.2,5.6
			c-3.4,3.7-5.1,8.5-5.1,14.3c0,5.9,1.7,10.9,5.1,14.7c3.4,3.8,7.8,5.8,13.1,5.8c3.2,0,6-0.6,8.3-1.9c1.9-1,3.5-2.5,4.7-4.3v5h7.2
			v-37.9h-7.2V201.7z M479,225.4c-2.3,2.5-5.2,3.8-8.7,3.8c-3.4,0-6.3-1.2-8.5-3.7c-2.2-2.5-3.3-5.7-3.3-9.7c0-3.9,1.1-7.1,3.4-9.5
			c2.2-2.4,5.2-3.6,8.7-3.6c3.6,0,6.5,1.2,8.6,3.4c2.2,2.3,3.2,5.4,3.2,9.4C482.5,219.6,481.3,222.9,479,225.4z"/>
		<path class="st2" d="M539.2,195.9c-2.8,0-5.2,0.6-7.1,1.7c-1.7,1-3.1,2.4-4.1,4.2c-0.8-1.8-2-3.2-3.5-4.2c-1.8-1.2-4-1.7-6.5-1.7
			c-2.7,0-5,0.5-6.8,1.6c-1.4,0.8-2.5,1.9-3.5,3.3v-3.7h-7.2V235h7.2v-18.3c0-4.9,0.7-8.6,2-10.9c1.3-2.3,3.3-3.4,6.2-3.4
			c2.3,0,3.9,0.7,4.9,2.2c1,1.5,1.5,4.1,1.5,7.8V235h7.2v-18.8c0-5.1,0.6-8.7,1.8-10.8c1.2-2.1,3.1-3.1,5.9-3.1c2.3,0,4,0.8,5,2.4
			c1.1,1.6,1.7,4.2,1.7,7.6V235h7.2v-24.8c0-4.5-1-8-3.1-10.5C545.8,197.2,542.8,195.9,539.2,195.9z"/>
		<path class="st2" d="M589.5,201.7c-1.3-1.7-2.9-3-4.8-4c-2.3-1.2-5-1.8-8.1-1.8c-5.3,0-9.8,1.9-13.2,5.6
			c-3.4,3.7-5.1,8.5-5.1,14.3c0,5.9,1.7,10.9,5.1,14.7c3.4,3.8,7.8,5.8,13.1,5.8c3.2,0,6-0.6,8.3-1.9c1.9-1,3.5-2.5,4.7-4.3v5h7.2
			v-37.9h-7.2V201.7z M586,225.4c-2.3,2.5-5.2,3.8-8.7,3.8c-3.4,0-6.3-1.2-8.5-3.7c-2.2-2.5-3.3-5.7-3.3-9.7c0-3.9,1.1-7.1,3.4-9.5
			c2.2-2.4,5.2-3.6,8.7-3.6c3.6,0,6.5,1.2,8.6,3.4c2.2,2.3,3.2,5.4,3.2,9.4C589.5,219.6,588.3,222.9,586,225.4z"/>
		<path class="st2" d="M626.2,195.9c-2.9,0-5.5,0.6-7.5,1.7c-1.6,0.9-3,2.2-4,3.8v-4.3h-7.2V235h7.2v-18.2c0-4.7,0.8-8.4,2.4-10.8
			c1.6-2.4,3.9-3.6,6.9-3.6c2.6,0,4.6,0.8,5.8,2.4c1.2,1.6,1.8,4.2,1.8,7.7V235h7.2v-24.3c0-4.6-1.1-8.3-3.4-10.8
			C633.2,197.3,630.1,195.9,626.2,195.9z"/>
		<rect x="650.8" y="197.1" class="st2" width="7.2" height="37.9"/>
		<path class="st2" d="M654.4,178c-1.3,0-2.4,0.5-3.4,1.4c-0.9,0.9-1.4,2.1-1.4,3.4c0,1.3,0.5,2.4,1.4,3.4c0.9,0.9,2.1,1.4,3.4,1.4
			c1.3,0,2.4-0.5,3.4-1.4c0.9-0.9,1.4-2.1,1.4-3.4s-0.5-2.4-1.4-3.4C656.8,178.5,655.7,178,654.4,178z"/>
		<path class="st2" d="M674.4,226.1c-1.4,0-2.6,0.5-3.5,1.5c-1,1-1.5,2.2-1.5,3.6c0,1.4,0.5,2.5,1.5,3.5c1,1,2.2,1.5,3.5,1.5
			c1.4,0,2.6-0.5,3.6-1.5c1-1,1.5-2.2,1.5-3.6c0-1.4-0.5-2.6-1.5-3.6C677,226.6,675.8,226.1,674.4,226.1z"/>
		<path class="st2" d="M713.7,196.8l-0.3-0.2c-0.4-0.2-1-0.4-1.6-0.5c-0.7-0.1-1.3-0.2-2-0.2c-2.9,0-5.3,0.6-7.1,1.9
			c-1.3,0.9-2.4,2.3-3.3,4v-4.8h-7.2V235h7.2v-16.5c0-5.2,0.8-9.2,2.3-11.8c1.5-2.6,3.7-3.8,6.7-3.8c0.6,0,1.1,0.1,1.6,0.2
			c0.5,0.1,1,0.3,1.4,0.6l0.5,0.3l1.6-6.8L713.7,196.8z"/>
		<path class="st2" d="M747.6,201.7c-3.9-3.8-8.7-5.8-14.4-5.8c-5.7,0-10.5,1.9-14.3,5.8c-3.8,3.8-5.8,8.6-5.8,14.2
			c0,5.6,2,10.5,5.8,14.4c3.9,3.9,8.7,5.9,14.3,5.9c5.6,0,10.5-2,14.4-5.9c3.9-3.9,5.9-8.8,5.9-14.4
			C753.5,210.3,751.5,205.5,747.6,201.7z M742.6,225.5c-2.5,2.5-5.6,3.8-9.3,3.8c-3.6,0-6.7-1.3-9.2-3.8c-2.5-2.5-3.8-5.8-3.8-9.6
			c0-3.8,1.3-6.9,3.7-9.4c2.5-2.5,5.6-3.7,9.3-3.7c3.7,0,6.8,1.2,9.3,3.7c2.5,2.5,3.8,5.6,3.8,9.4
			C746.3,219.7,745.1,222.9,742.6,225.5z"/>
	</g>
</g>
</svg>
